<svg width="500" height="500" viewBox="0 0 500 500" fill="none" xmlns="http://www.w3.org/2000/svg">
<g filter="url(#filter0_b_11_8)">
<path d="M82 236C82 219.431 95.4315 206 112 206H388C404.569 206 418 219.431 418 236V263C418 279.569 404.569 293 388 293H112C95.4315 293 82 279.569 82 263V236Z" fill="#82C1EB" fill-opacity="0.5"/>
</g>
<path d="M171.609 259.031C170.964 259.156 170.26 259.219 169.5 259.219C168.292 259.219 167.406 259.005 166.844 258.578C166.281 258.141 165.932 257.583 165.797 256.906C165.661 256.229 165.594 255.307 165.594 254.141V244.734H163.547V242.422H165.594V238.297H168.531V242.422H171.219V244.734H168.531V254.297C168.531 255.432 168.672 256.156 168.953 256.469C169.245 256.771 169.641 256.922 170.141 256.922C170.651 256.922 171.141 256.88 171.609 256.797V259.031ZM181.125 259.391C178.688 259.391 176.729 258.63 175.25 257.109C173.771 255.578 173.031 253.448 173.031 250.719C173.031 248.01 173.745 245.891 175.172 244.359C176.609 242.818 178.484 242.047 180.797 242.047C183.161 242.047 185.047 242.802 186.453 244.312C187.87 245.823 188.578 247.958 188.578 250.719V251.422H176.094C176.219 253.339 176.745 254.76 177.672 255.688C178.609 256.615 179.76 257.078 181.125 257.078C182.156 257.078 183.083 256.818 183.906 256.297C184.74 255.766 185.177 255.016 185.219 254.047H188.266C188.036 255.755 187.26 257.073 185.938 258C184.625 258.927 183.021 259.391 181.125 259.391ZM185.469 249.109C185.229 247.516 184.693 246.323 183.859 245.531C183.026 244.74 182.005 244.344 180.797 244.344C179.62 244.344 178.609 244.74 177.766 245.531C176.922 246.312 176.385 247.505 176.156 249.109H185.469ZM214.297 259H211.344V248.281C211.344 246.906 211.146 245.927 210.75 245.344C210.354 244.76 209.693 244.469 208.766 244.469C207.339 244.469 205.938 245.354 204.562 247.125V259H201.625V248.281C201.625 246.906 201.427 245.927 201.031 245.344C200.635 244.76 199.969 244.469 199.031 244.469C197.604 244.469 196.208 245.354 194.844 247.125V259H191.891V242.422H194.844V244.531C196.24 242.875 197.786 242.047 199.484 242.047C201.911 242.047 203.458 243.047 204.125 245.047C205.229 243.745 206.167 242.922 206.938 242.578C207.708 242.224 208.464 242.047 209.203 242.047C212.599 242.047 214.297 244.083 214.297 248.156V259ZM221.5 244.406C222.812 242.833 224.391 242.047 226.234 242.047C228.401 242.047 230.078 242.818 231.266 244.359C232.453 245.891 233.047 247.964 233.047 250.578C233.047 253.297 232.38 255.448 231.047 257.031C229.724 258.604 228.052 259.391 226.031 259.391C224.24 259.391 222.729 258.833 221.5 257.719V265.375H218.547V242.422H221.5V244.406ZM221.5 255.062C222.76 256.406 224.208 257.078 225.844 257.078C227.115 257.078 228.125 256.536 228.875 255.453C229.625 254.359 230 252.734 230 250.578C230 248.536 229.646 246.99 228.938 245.938C228.229 244.875 227.24 244.344 225.969 244.344C224.333 244.344 222.844 245.292 221.5 247.188V255.062ZM243.406 259.391C240.969 259.391 239.01 258.63 237.531 257.109C236.052 255.578 235.312 253.448 235.312 250.719C235.312 248.01 236.026 245.891 237.453 244.359C238.891 242.818 240.766 242.047 243.078 242.047C245.443 242.047 247.328 242.802 248.734 244.312C250.151 245.823 250.859 247.958 250.859 250.719V251.422H238.375C238.5 253.339 239.026 254.76 239.953 255.688C240.891 256.615 242.042 257.078 243.406 257.078C244.438 257.078 245.365 256.818 246.188 256.297C247.021 255.766 247.458 255.016 247.5 254.047H250.547C250.318 255.755 249.542 257.073 248.219 258C246.906 258.927 245.302 259.391 243.406 259.391ZM247.75 249.109C247.51 247.516 246.974 246.323 246.141 245.531C245.307 244.74 244.286 244.344 243.078 244.344C241.901 244.344 240.891 244.74 240.047 245.531C239.203 246.312 238.667 247.505 238.438 249.109H247.75ZM262.781 245.109C262.365 244.984 261.766 244.922 260.984 244.922C259.484 244.922 258.198 245.708 257.125 247.281V259H254.172V242.422H257.125V244.734C258.365 242.943 259.802 242.047 261.438 242.047C261.854 242.047 262.302 242.089 262.781 242.172V245.109ZM275.328 254.641V250.969H273.312C269.042 250.969 266.906 252.13 266.906 254.453C266.906 255.297 267.219 255.948 267.844 256.406C268.469 256.854 269.312 257.078 270.375 257.078C271.344 257.078 272.281 256.859 273.188 256.422C274.094 255.984 274.807 255.391 275.328 254.641ZM275.328 257.297C273.828 258.693 271.896 259.391 269.531 259.391C267.885 259.391 266.531 258.948 265.469 258.062C264.406 257.167 263.875 256.016 263.875 254.609C263.875 250.734 267.214 248.797 273.891 248.797H275.328C275.328 247.609 275.266 246.75 275.141 246.219C275.016 245.677 274.667 245.229 274.094 244.875C273.521 244.521 272.609 244.344 271.359 244.344C268.734 244.344 267.38 245.281 267.297 247.156H264.359C264.578 243.75 266.964 242.047 271.516 242.047C273.641 242.047 275.297 242.469 276.484 243.312C277.672 244.156 278.266 245.812 278.266 248.281V259H275.328V257.297ZM289.078 259.031C288.432 259.156 287.729 259.219 286.969 259.219C285.76 259.219 284.875 259.005 284.312 258.578C283.75 258.141 283.401 257.583 283.266 256.906C283.13 256.229 283.062 255.307 283.062 254.141V244.734H281.016V242.422H283.062V238.297H286V242.422H288.688V244.734H286V254.297C286 255.432 286.141 256.156 286.422 256.469C286.714 256.771 287.109 256.922 287.609 256.922C288.12 256.922 288.609 256.88 289.078 256.797V259.031ZM302.047 256.891C300.578 258.557 298.927 259.391 297.094 259.391C293.354 259.391 291.484 257.349 291.484 253.266V242.422H294.438V253.141C294.438 254.495 294.677 255.469 295.156 256.062C295.635 256.656 296.427 256.953 297.531 256.953C299.177 256.953 300.682 256.068 302.047 254.297V242.422H304.984V259H302.047V256.891ZM317.969 245.109C317.552 244.984 316.953 244.922 316.172 244.922C314.672 244.922 313.385 245.708 312.312 247.281V259H309.359V242.422H312.312V244.734C313.552 242.943 314.99 242.047 316.625 242.047C317.042 242.047 317.49 242.089 317.969 242.172V245.109ZM327.062 259.391C324.625 259.391 322.667 258.63 321.188 257.109C319.708 255.578 318.969 253.448 318.969 250.719C318.969 248.01 319.682 245.891 321.109 244.359C322.547 242.818 324.422 242.047 326.734 242.047C329.099 242.047 330.984 242.802 332.391 244.312C333.807 245.823 334.516 247.958 334.516 250.719V251.422H322.031C322.156 253.339 322.682 254.76 323.609 255.688C324.547 256.615 325.698 257.078 327.062 257.078C328.094 257.078 329.021 256.818 329.844 256.297C330.677 255.766 331.115 255.016 331.156 254.047H334.203C333.974 255.755 333.198 257.073 331.875 258C330.562 258.927 328.958 259.391 327.062 259.391ZM331.406 249.109C331.167 247.516 330.63 246.323 329.797 245.531C328.964 244.74 327.943 244.344 326.734 244.344C325.557 244.344 324.547 244.74 323.703 245.531C322.859 246.312 322.323 247.505 322.094 249.109H331.406Z" fill="white"/>
<defs>
<filter id="filter0_b_11_8" x="78" y="202" width="344" height="95" filterUnits="userSpaceOnUse" color-interpolation-filters="sRGB">
<feFlood flood-opacity="0" result="BackgroundImageFix"/>
<feGaussianBlur in="BackgroundImageFix" stdDeviation="2"/>
<feComposite in2="SourceAlpha" operator="in" result="effect1_backgroundBlur_11_8"/>
<feBlend mode="normal" in="SourceGraphic" in2="effect1_backgroundBlur_11_8" result="shape"/>
</filter>
</defs>
</svg>
